<svg width="425" height="433" viewBox="0 0 425 433" fill="none" xmlns="http://www.w3.org/2000/svg">
<g clip-path="url(#clip0)">
<rect width="425" height="7686" transform="translate(0 -243)" fill="white"/>
<path d="M221.86 44.7793L105.536 302.206" stroke="#1A1B20" stroke-width="3"/>
<path d="M129.969 78.8496L205.339 251.959" stroke="#B4B4B4" stroke-width="3"/>
<path d="M94.1782 152.844L250.768 159.727" stroke="#B4B4B4" stroke-width="2"/>
<path fill-rule="evenodd" clip-rule="evenodd" d="M166.657 209.975C195.662 209.975 219.175 186.462 219.175 157.456C219.175 128.451 195.662 104.938 166.657 104.938C137.651 104.938 114.138 128.451 114.138 157.456C114.138 186.462 137.651 209.975 166.657 209.975ZM166.655 177.911C177.951 177.911 187.109 168.753 187.109 157.457C187.109 146.16 177.951 137.002 166.655 137.002C155.358 137.002 146.201 146.16 146.201 157.457C146.201 168.753 155.358 177.911 166.655 177.911Z" fill="#D3D3D3"/>
<path fill-rule="evenodd" clip-rule="evenodd" d="M166.654 204.448C192.607 204.448 213.646 183.41 213.646 157.457C213.646 131.504 192.607 110.465 166.654 110.465C140.702 110.465 119.663 131.504 119.663 157.457C119.663 183.41 140.702 204.448 166.654 204.448ZM166.654 177.911C177.951 177.911 187.108 168.754 187.108 157.457C187.108 146.161 177.951 137.003 166.654 137.003C155.358 137.003 146.2 146.161 146.2 157.457C146.2 168.754 155.358 177.911 166.654 177.911Z" fill="#A80000"/>
<path fill-rule="evenodd" clip-rule="evenodd" d="M166.656 193.071C186.324 193.071 202.269 177.126 202.269 157.457C202.269 137.788 186.324 121.844 166.656 121.844C146.987 121.844 131.042 137.788 131.042 157.457C131.042 177.126 146.987 193.071 166.656 193.071ZM166.655 177.912C177.951 177.912 187.109 168.754 187.109 157.458C187.109 146.161 177.951 137.003 166.655 137.003C155.358 137.003 146.201 146.161 146.201 157.458C146.201 168.754 155.358 177.912 166.655 177.912Z" fill="#A80000"/>
<circle cx="166.656" cy="157.456" r="11.872" stroke="#1A1B20" stroke-width="2"/>
<path d="M306.272 380.624L376.658 311.523L412.976 336.592L320.735 411.799L306.272 380.624Z" fill="#DC0B07"/>
<path d="M14.4934 29.6641H54.3033L13.6465 76.5627L14.4934 29.6641Z" fill="#AD4949"/>
<path d="M98.1666 169.279L98.1666 223.534L51.1803 196.407L98.1666 169.279Z" fill="#DC0B07"/>
<circle cx="36.2471" cy="175.405" r="4.80182" fill="#2A2B30"/>
<circle cx="155.419" cy="365.803" r="7.71354" fill="#332B2B"/>
<circle cx="155.602" cy="365.473" r="5.07488" fill="#AD4949"/>
<circle cx="251.072" cy="58.2539" r="4.28516" stroke="#AD4949" stroke-width="3"/>
<circle cx="163.623" cy="222.799" r="4.58011" stroke="#2A2B30" stroke-width="2"/>
<line x1="167.605" y1="223.637" x2="306.924" y2="369.167" stroke="#2A2B30" stroke-width="2"/>
<line x1="169.465" y1="223.747" x2="385.59" y2="282.088" stroke="#2A2B30" stroke-width="2"/>
<line x1="173.401" y1="255.689" x2="205.719" y2="207.794" stroke="#2A2B30" stroke-width="2"/>
<line x1="180.291" y1="268.671" x2="225.942" y2="199.957" stroke="#2A2B30" stroke-width="2"/>
<line x1="185.196" y1="286.912" x2="282.669" y2="432.442" stroke="black" stroke-width="2"/>
<line x1="339.61" y1="368.237" x2="184.369" y2="288.359" stroke="black" stroke-width="2"/>
<circle cx="180.703" cy="284.094" r="3.37533" fill="#2A2B30"/>
<line x1="198.974" y1="335.008" x2="227.234" y2="298.655" stroke="black"/>
<line x1="203.028" y1="338.252" x2="231.288" y2="301.899" stroke="black"/>
<line x1="207.08" y1="341.503" x2="234.549" y2="304.88" stroke="black"/>
<line x1="210.933" y1="344.466" x2="237.119" y2="307.642" stroke="black"/>
<line x1="213.713" y1="347.184" x2="241.047" y2="309.776" stroke="black"/>
<circle cx="189.913" cy="331.042" r="3.60678" stroke="#333438" stroke-width="2"/>
<path d="M207 81.731C209.12 97.6251 223.803 130.322 261.495 130.322C270.577 111.249 230.615 73.5569 207 81.731Z" stroke="#D3D3D3" stroke-width="2"/>
<path d="M208.022 86.0456L220.17 81.2773" stroke="#D3D3D3" stroke-width="2"/>
<path d="M210.177 91.7213L226.298 83.4336" stroke="#D3D3D3" stroke-width="2"/>
<path d="M212.335 97.3981L233.338 85.9316" stroke="#D3D3D3" stroke-width="2"/>
<path d="M227.379 118.147L253.037 102.934" stroke="#D3D3D3" stroke-width="2"/>
<path d="M232.375 122.005L257.011 108.154" stroke="#D3D3D3" stroke-width="2"/>
<path d="M240.549 126.093L259.735 113.832" stroke="#D3D3D3" stroke-width="2"/>
<path d="M246.109 128.135L261.776 119.848" stroke="#D3D3D3" stroke-width="2"/>
<path d="M215.288 103.189L239.129 90.0195" stroke="#D3D3D3" stroke-width="2"/>
<path d="M218.579 108.751L243.783 94.2188" stroke="#D3D3D3" stroke-width="2"/>
<path d="M222.838 113.944L248.496 98.6172" stroke="#D3D3D3" stroke-width="2"/>
<path d="M333.843 37.8789L348.538 65.0082" stroke="#DC0B07" stroke-width="3"/>
<path d="M338.93 39.1973C330.075 42.7768 324.989 62.1818 348.162 60.4862" stroke="#DC0B07" stroke-width="3"/>
<path d="M361.592 61.1562L370.307 77.2457" stroke="#A80000" stroke-width="2"/>
<path d="M364.611 61.9395C359.36 64.0624 357.796 75.9995 371.539 74.9939" stroke="#A80000" stroke-width="2"/>
<path d="M326.336 114.137L335.051 130.226" stroke="#AD4949" stroke-width="2"/>
<path d="M329.355 114.92C324.104 117.043 322.54 128.98 336.283 127.974" stroke="#AD4949" stroke-width="2"/>
<path d="M310.031 85.8086L329.105 121.023" stroke="#2A2B30" stroke-width="3"/>
<path d="M316.634 87.5215C303.611 89.879 301.916 122.095 330.175 114.936" stroke="#2A2B30" stroke-width="3"/>
<rect x="249.12" y="8.48633" width="8.9225" height="252.634" transform="rotate(-27.4884 249.12 8.48633)" fill="#2A2B30"/>
<rect x="330.064" y="159.896" width="4.52155" height="4.52154" transform="rotate(-27.4884 330.064 159.896)" fill="white"/>
<rect x="321.892" y="143.217" width="4.52155" height="7.15048" transform="rotate(-27.4884 321.892 143.217)" fill="white"/>
<rect x="314.28" y="128.193" width="4.52155" height="7.15048" transform="rotate(-27.4884 314.28 128.193)" fill="white"/>
<rect x="306.668" y="113.172" width="4.52155" height="7.15048" transform="rotate(-27.4884 306.668 113.172)" fill="white"/>
<rect x="299.056" y="98.1504" width="4.52155" height="7.15048" transform="rotate(-27.4884 299.056 98.1504)" fill="white"/>
<rect x="289.553" y="79.7422" width="4.52155" height="7.15048" transform="rotate(-27.4884 289.553 79.7422)" fill="white"/>
<rect x="280.049" y="61.334" width="4.52155" height="7.15048" transform="rotate(-27.4884 280.049 61.334)" fill="white"/>
<rect x="271.868" y="45.5605" width="4.52155" height="7.15048" transform="rotate(-27.4884 271.868 45.5605)" fill="white"/>
<rect x="263.685" y="29.7852" width="4.52155" height="7.15048" transform="rotate(-27.4884 263.685 29.7852)" fill="white"/>
<rect x="255.502" y="14.0098" width="4.52155" height="7.15048" transform="rotate(-27.4884 255.502 14.0098)" fill="white"/>
<rect x="337.598" y="173.863" width="4.52155" height="4.52154" transform="rotate(-27.4884 337.598 173.863)" fill="white"/>
<rect x="343.975" y="186.236" width="4.52155" height="4.52154" transform="rotate(-27.4884 343.975 186.236)" fill="white"/>
<rect x="271.165" y="200.201" width="4.52154" height="4.52155" transform="rotate(-27.4884 271.165 200.201)" fill="white"/>
<rect x="277.193" y="212.66" width="4.52154" height="4.52155" transform="rotate(-27.4884 277.193 212.66)" fill="white"/>
<rect width="4.52155" height="4.52154" transform="matrix(0.887105 -0.461569 0.461571 0.887103 284.381 225.957)" fill="white"/>
<path d="M293.886 42.4473L296.31 41.8083L413.589 247.439L408.151 251.092L293.886 42.4473Z" fill="#1A1B20"/>
<path d="M296.146 41.6934L299.611 39.9507L411.896 249.261L410.411 250.338L296.146 41.6934Z" fill="#D3D3D3"/>
<path d="M299.16 40.187L299.611 40.1869L413.78 247.943L411.896 249.261L299.16 40.187Z" fill="#AD4949"/>
<line x1="190.761" y1="318.93" x2="420.646" y2="16.5984" stroke="#322B20" stroke-width="3"/>
<line x1="192.458" y1="72.3409" x2="511.734" y2="3.34755" stroke="#D3D3D3" stroke-width="2"/>
<line x1="227.512" y1="152.338" x2="405.327" y2="68.4638" stroke="#D3D3D3" stroke-width="2"/>
<line x1="183.913" y1="197.077" x2="242.078" y2="160.284" stroke="#322B20" stroke-width="2"/>
<circle cx="239.02" cy="157.019" r="5.53308" fill="#1A1B20"/>
<path d="M495.487 160.877C376.264 224.864 232.454 214.95 232.116 135.145C234.445 134.433 236.989 135.27 238.122 137.426C245.524 151.51 248.782 177.208 295.172 189.022C380.069 206.166 442.011 184.23 495.487 160.877Z" fill="#1A1B20"/>
<path d="M164.605 89.6424C167.376 114.013 184.757 157.231 232.116 135.145M232.116 135.145C232.454 214.95 376.264 224.864 495.487 160.877C442.011 184.23 380.069 206.166 295.172 189.022C248.782 177.208 245.524 151.51 238.122 137.426C236.989 135.27 234.445 134.433 232.116 135.145V135.145Z" stroke="#1A1B20" stroke-width="3"/>
<circle cx="142.163" cy="366.156" r="30.189" fill="#F0EFED"/>
<path d="M56.1577 257.187L65.4782 233.725C87.0119 283.541 122.687 329.823 195.002 357.141C111.438 354.249 56.1577 277.128 56.1577 257.187Z" fill="#020202"/>
<rect x="59.8159" y="341.803" width="8.55243" height="77.4468" fill="#1A1B20"/>
<rect x="64.1587" y="348.697" width="4.58265" height="4.58265" fill="white"/>
<rect x="64.1587" y="360.611" width="4.58265" height="4.58265" fill="white"/>
<rect x="64.1587" y="373.443" width="4.58265" height="4.58265" fill="white"/>
<rect x="64.1587" y="385.357" width="4.58265" height="4.58265" fill="white"/>
<rect x="64.1587" y="397.273" width="4.58265" height="4.58265" fill="white"/>
<rect x="64.1587" y="408.271" width="4.58265" height="4.58265" fill="white"/>
<rect x="14.9375" y="341.803" width="8.55243" height="77.4468" fill="#1A1B20"/>
<rect x="19.2788" y="348.697" width="4.58265" height="4.58265" fill="white"/>
<rect x="19.2788" y="360.611" width="4.58265" height="4.58265" fill="white"/>
<rect x="19.2788" y="373.443" width="4.58265" height="4.58265" fill="white"/>
<rect x="19.2788" y="385.357" width="4.58265" height="4.58265" fill="white"/>
<rect x="19.2788" y="397.273" width="4.58265" height="4.58265" fill="white"/>
<rect x="19.2788" y="408.271" width="4.58265" height="4.58265" fill="white"/>
</g>
<defs>
<clipPath id="clip0">
<rect width="425" height="7686" fill="white" transform="translate(0 -243)"/>
</clipPath>
</defs>
</svg>
