<svg width="47" height="47" viewBox="0 0 47 47" fill="none" xmlns="http://www.w3.org/2000/svg">
<path d="M33.9924 28.0022L31.1824 25.1922C30.1788 24.1887 28.4727 24.5901 28.0713 25.8947C27.7702 26.798 26.7666 27.2998 25.8634 27.099C23.8563 26.5972 21.1466 23.9879 20.6448 21.8804C20.3438 20.9772 20.9459 19.9736 21.8491 19.6726C23.1538 19.2711 23.5552 17.5651 22.5516 16.5615L19.7416 13.7515C18.9388 13.049 17.7345 13.049 17.032 13.7515L15.1252 15.6583C13.2184 17.6654 15.3259 22.9844 20.0427 27.7012C24.7595 32.418 30.0784 34.6259 32.0856 32.6187L33.9924 30.7119C34.6949 29.909 34.6949 28.7047 33.9924 28.0022Z" fill="white" fill-opacity="0.7"/>
<rect x="1.47266" y="1.26953" width="45" height="45" stroke="white"/>
</svg>
