<svg width="31" height="31" viewBox="0 0 31 31" fill="none" xmlns="http://www.w3.org/2000/svg">
<path d="M20.111 5.14062H10.6577C7.58108 5.14062 5.07812 7.64358 5.07812 10.7202V20.1736C5.07812 23.2501 7.58108 25.7531 10.6577 25.7531H20.1111C23.1876 25.7531 25.6906 23.2501 25.6906 20.1736V10.7202C25.6906 7.64358 23.1876 5.14063 20.111 5.14063V5.14062ZM15.3843 21.0829C12.2766 21.0829 9.74829 18.5546 9.74829 15.4468C9.74829 12.3391 12.2766 9.81079 15.3843 9.81079C18.4921 9.81079 21.0204 12.3391 21.0204 15.4468C21.0204 18.5546 18.4921 21.0829 15.3843 21.0829ZM21.1552 11.14C20.2368 11.14 19.4898 10.393 19.4898 9.47456C19.4898 8.55616 20.2368 7.80902 21.1552 7.80902C22.0736 7.80902 22.8207 8.55616 22.8207 9.47456C22.8207 10.393 22.0736 11.14 21.1552 11.14Z" fill="white" fill-opacity="0.7"/>
<path d="M15.3847 11.0195C12.9434 11.0195 10.957 13.0057 10.957 15.4472C10.957 17.8885 12.9434 19.8749 15.3847 19.8749C17.8262 19.8749 19.8124 17.8885 19.8124 15.4472C19.8124 13.0057 17.8262 11.0195 15.3847 11.0195Z" fill="white" fill-opacity="0.7"/>
<path d="M21.1552 9.01758C20.9033 9.01758 20.6982 9.22265 20.6982 9.47458C20.6982 9.72651 20.9033 9.93158 21.1552 9.93158C21.4073 9.93158 21.6124 9.72666 21.6124 9.47458C21.6124 9.22249 21.4073 9.01758 21.1552 9.01758Z" fill="white" fill-opacity="0.7"/>
</svg>
