<svg width="364" height="38" viewBox="0 0 364 38" fill="none" xmlns="http://www.w3.org/2000/svg">
<path d="M287.012 16.3177C289.103 16.3177 290.863 16.9363 292.292 18.1737C293.743 19.3897 294.468 21.043 294.468 23.1337C294.468 25.2243 293.743 26.8883 292.292 28.1257C290.863 29.3417 289.103 29.9497 287.012 29.9497C285.369 29.9497 283.897 29.555 282.596 28.7657C281.316 27.9763 280.431 26.867 279.94 25.4377L281.38 24.6057C281.743 25.8003 282.425 26.7177 283.428 27.3577C284.431 27.9977 285.625 28.3177 287.012 28.3177C288.697 28.3177 290.073 27.8483 291.14 26.9097C292.228 25.971 292.772 24.7123 292.772 23.1337C292.772 21.555 292.228 20.2963 291.14 19.3577C290.073 18.419 288.697 17.9497 287.012 17.9497H281.028L281.796 7.19765H293.636V8.79766H283.3L282.788 16.3177H287.012ZM318.616 13.5977H320.024V29.5977H318.392V16.3817L308.216 29.5977H306.808V13.5977H308.408V26.8137L318.616 13.5977ZM332.644 21.3417C333.604 21.6617 334.351 22.1737 334.884 22.8777C335.417 23.5817 335.684 24.3923 335.684 25.3097C335.684 26.611 335.172 27.7097 334.148 28.6057C333.124 29.5017 331.673 29.9497 329.796 29.9497C326.596 29.9497 324.516 28.691 323.556 26.1737L324.932 25.3737C325.615 27.4003 327.236 28.4137 329.796 28.4137C331.119 28.4137 332.153 28.1257 332.9 27.5497C333.668 26.9523 334.052 26.1737 334.052 25.2137C334.052 24.339 333.732 23.635 333.092 23.1017C332.452 22.547 331.599 22.2697 330.532 22.2697H328.324V20.7017H329.924C330.969 20.7017 331.791 20.435 332.388 19.9017C332.985 19.3683 333.284 18.6537 333.284 17.7577C333.284 16.9043 332.932 16.2003 332.228 15.6457C331.545 15.0697 330.639 14.7817 329.508 14.7817C327.332 14.7817 325.892 15.6457 325.188 17.3737L323.844 16.6057C324.292 15.5817 324.996 14.771 325.956 14.1737C326.916 13.555 328.1 13.2457 329.508 13.2457C331.151 13.2457 332.452 13.683 333.412 14.5577C334.393 15.411 334.884 16.4563 334.884 17.6937C334.884 19.4217 334.137 20.6377 332.644 21.3417ZM353.793 16.3177C355.884 16.3177 357.644 16.9363 359.073 18.1737C360.524 19.3897 361.249 21.043 361.249 23.1337C361.249 25.2243 360.524 26.8883 359.073 28.1257C357.644 29.3417 355.884 29.9497 353.793 29.9497C352.151 29.9497 350.679 29.555 349.377 28.7657C348.097 27.9763 347.212 26.867 346.721 25.4377L348.161 24.6057C348.524 25.8003 349.207 26.7177 350.209 27.3577C351.212 27.9977 352.407 28.3177 353.793 28.3177C355.479 28.3177 356.855 27.8483 357.921 26.9097C359.009 25.971 359.553 24.7123 359.553 23.1337C359.553 21.555 359.009 20.2963 357.921 19.3577C356.855 18.419 355.479 17.9497 353.793 17.9497H347.809L348.577 7.19765H360.417V8.79766H350.081L349.569 16.3177H353.793Z" fill="#1A1B20"/>
<ellipse cx="217.374" cy="18.792" rx="13.8037" ry="13.4565" transform="rotate(-90 217.374 18.792)" fill="#DC0B07"/>
<line y1="-2" x2="31.0066" y2="-2" transform="matrix(-0.25273 0.967537 -0.964239 -0.265033 8.66699 3.93945)" stroke="#F0EFED" stroke-width="4"/>
<line y1="-2" x2="31.0066" y2="-2" transform="matrix(-0.25273 0.967537 -0.964239 -0.265033 59.1289 3.93945)" stroke="#F0EFED" stroke-width="4"/>
<line y1="-2" x2="31.0066" y2="-2" transform="matrix(-0.25273 0.967537 -0.964239 -0.265033 109.591 3.93945)" stroke="#F0EFED" stroke-width="4"/>
<line y1="-2" x2="31.0066" y2="-2" transform="matrix(-0.25273 0.967537 -0.964239 -0.265033 160.053 3.93945)" stroke="#F0EFED" stroke-width="4"/>
</svg>
