<svg width="128" height="129" viewBox="0 0 128 129" fill="none" xmlns="http://www.w3.org/2000/svg">
<rect y="0.203125" width="128" height="128" fill="#DC0B07"/>
<path d="M114.543 96.2241C111.038 66.5929 80.6857 26.2488 37.9886 73.5416" stroke="white" stroke-width="3"/>
<path d="M61.2375 56.0313C55.9121 43.5571 38.7858 22.5224 15.4204 42.7752" stroke="white"/>
<path d="M100.408 92.7875C101.27 89.5699 101.49 86.2141 101.055 82.9116C100.62 79.609 99.5394 76.4245 97.8739 73.5397C96.2084 70.6549 93.991 68.1265 91.3483 66.0987C88.7056 64.0709 85.6894 62.5834 82.4718 61.7213C79.2543 60.8592 75.8985 60.6392 72.5959 61.074C69.2934 61.5088 66.1088 62.5898 63.2241 64.2553C60.3393 65.9208 57.8108 68.1382 55.783 70.7809C53.7552 73.4236 52.2678 76.4398 51.4057 79.6573L63.6562 82.9399C64.0873 81.3311 64.831 79.823 65.8449 78.5017C66.8588 77.1803 68.123 76.0716 69.5654 75.2389C71.0078 74.4061 72.6001 73.8656 74.2513 73.6482C75.9026 73.4308 77.5805 73.5408 79.1893 73.9719C80.7981 74.4029 82.3062 75.1466 83.6275 76.1605C84.9489 77.1744 86.0576 78.4387 86.8903 79.8811C87.7231 81.3234 88.2636 82.9157 88.481 84.567C88.6984 86.2182 88.5884 87.8962 88.1573 89.5049L100.408 92.7875Z" fill="white"/>
</svg>
