<svg width="121" height="122" viewBox="0 0 121 122" fill="none" xmlns="http://www.w3.org/2000/svg">
<g clip-path="url(#clip0)">
<path d="M120.788 52.0605H109.444V57.0928H120.788V52.0605Z" fill="#DC001C"/>
<path d="M66.4288 52.6801C65.7784 52.257 64.7953 52.0605 63.4945 52.0605H55.7959V57.9541H63.4945C64.7802 57.9541 65.7482 57.7275 66.4137 57.2892C67.0792 56.8359 67.4119 56.0652 67.4119 54.962C67.4119 53.8588 67.0943 53.1033 66.4288 52.6801Z" fill="#DC001C"/>
<path d="M29.8867 59.784H39.1281L34.515 51.9863L29.8867 59.784Z" fill="#DC001C"/>
<path d="M51.4404 21.7312H61.075L56.2653 13.5859L51.4404 21.7312Z" fill="#DC001C"/>
<path d="M120.788 58.1055H109.444V63.1377H120.788V58.1055Z" fill="#DC001C"/>
<path d="M0 0.5V25.9029L7.89525 12.6348H9.27163L17.3938 26.2505H16.093L14.036 22.7748H3.146L1.089 26.2505H0V55.8393C0.166375 55.1593 0.4235 54.5246 0.801625 53.9504C1.46713 52.9076 2.40488 52.1067 3.61488 51.5325C4.82488 50.9582 6.21638 50.6711 7.77425 50.6711C9.2565 50.6711 10.527 50.8978 11.5858 51.3662C12.6445 51.8347 13.4764 52.4392 14.0663 53.2099C14.6561 53.9655 15.0191 54.7966 15.1553 55.6882H14.0209C13.915 55.0384 13.6276 54.4188 13.1588 53.7992C12.6899 53.1948 11.9941 52.681 11.1018 52.2729C10.1943 51.8649 9.09013 51.6534 7.77425 51.6534C6.18613 51.6534 4.87025 51.9556 3.84175 52.545C2.81325 53.1494 2.07213 53.8899 1.61838 54.7966C1.16463 55.7033 0.93775 56.6251 0.93775 57.5621C0.93775 58.5141 1.16463 59.4359 1.61838 60.3275C2.07213 61.2342 2.81325 61.9747 3.82663 62.5792C4.84 63.1685 6.15588 63.4708 7.744 63.4708C9.04475 63.4708 10.1489 63.3499 11.0564 63.1081C11.9639 62.8663 12.9621 62.4734 14.0209 61.9294V58.8315H7.51713V57.819H15.1704V62.4281C13.8696 63.1685 12.6748 63.6974 11.5706 64.0148C10.4665 64.3321 9.196 64.4984 7.75913 64.4984C6.18613 64.4984 4.80975 64.2112 3.59975 63.637C2.40488 63.0627 1.46713 62.2618 0.801625 61.2191C0.438625 60.6449 0.166375 60.0102 0 59.3301V121.394H120.803V64.1206H108.371V51.064H120.803V13.6775H113.891V26.2656H112.757V13.6775H105.467V12.6499H120.788V12.7254V0.605782H120.985V0.5H0ZM24.9109 12.6348L32.428 25.2984L39.93 12.6348H41.2308L33.1086 26.2505H31.7323L23.6253 12.6348H24.9109ZM41.6996 64.1206L39.7183 60.7809H29.282L27.3006 64.1206H26.0755L33.8498 51.064H35.1808L42.955 64.1206H41.6996ZM48.7479 26.2656H47.4623L55.5693 12.6499H56.9456L65.0678 26.2656H63.767L61.71 22.7899H50.82L48.7479 26.2656ZM67.8356 58.9523C68.1835 59.3604 68.365 59.9044 68.365 60.5542V64.1206H67.276V60.7507C67.276 60.1311 67.1096 59.6777 66.7769 59.3906C66.4441 59.1035 65.945 58.9675 65.2795 58.9675H55.7961V64.1206H54.7071V51.064H63.6763C65.2946 51.064 66.5046 51.3662 67.3214 51.9858C68.1381 52.6054 68.5465 53.5423 68.5465 54.8117C68.5465 56.5194 67.8054 57.6376 66.3383 58.1816C66.9886 58.2874 67.4878 58.5443 67.8356 58.9523ZM78.4685 26.2656H77.3341V12.6348H78.9374L91.9449 25.1624V12.6348H93.0793V26.2505H91.476L78.4685 13.7228V26.2656ZM95.0758 61.204C94.4708 62.1863 93.6843 62.9267 92.686 63.4103C91.6878 63.8939 90.5836 64.1357 89.3585 64.1357H81.1456V51.0791H89.3585C90.5836 51.0791 91.6878 51.3209 92.686 51.8045C93.6843 52.2881 94.4859 53.0285 95.0758 54.0108C95.6808 54.9931 95.9681 56.1869 95.9681 57.6074C95.9681 59.0128 95.6656 60.2217 95.0758 61.204Z" fill="#DC001C"/>
<path d="M93.2756 53.4508C92.232 52.529 90.7649 52.0605 88.8591 52.0605H82.2344V63.1375H88.8591C90.7649 63.1375 92.232 62.669 93.2756 61.7472C94.3192 60.8254 94.8335 59.4351 94.8335 57.5915C94.8335 55.7478 94.3041 54.3727 93.2756 53.4508Z" fill="#DC001C"/>
<path d="M8.59148 13.5859L3.7666 21.7312H13.4012L8.59148 13.5859Z" fill="#DC001C"/>
<path d="M120.804 12.7251V13.6772V51.0637V52.0611V57.0933V58.1058V63.138V64.1203V121.394H121V0.605469H120.804V12.7251Z" fill="#DC001C"/>
<path d="M3.13088 22.7748H14.0209L16.0779 26.2505H17.3786L9.27163 12.6348H7.89525L0 25.9029V26.2656H1.07388L3.13088 22.7748ZM8.591 13.5868L13.4008 21.7169H3.76612L8.591 13.5868Z" fill="white"/>
<path d="M33.1084 26.2656L41.2305 12.6348H39.9297L32.4277 25.2984L24.9106 12.6348H23.625L31.732 26.2656H33.1084Z" fill="white"/>
<path d="M63.7667 26.2661H65.0674L56.9453 12.6504H55.5689L47.4619 26.2661H48.7475L50.8045 22.7904H61.6945L63.7667 26.2661ZM51.4398 21.7326L56.2647 13.5873L61.0744 21.7175H51.4398V21.7326Z" fill="white"/>
<path d="M93.064 26.2656V12.6348H91.9447V25.1775L78.9372 12.6348H77.334V26.2656H78.4684V13.7228L91.4759 26.2656H93.064Z" fill="white"/>
<path d="M120.804 12.6348H105.467V13.6775H112.757V26.2656H113.891V13.6775H120.804V12.7254V12.6348Z" fill="white"/>
<path d="M3.59927 63.6369C4.79415 64.2111 6.18565 64.4982 7.75865 64.4982C9.19552 64.4982 10.466 64.332 11.5701 64.0147C12.6743 63.6973 13.8843 63.1684 15.1699 62.4279V57.8188H7.51665V58.8313H14.0355V61.9595C12.9768 62.5035 11.9936 62.8964 11.071 63.1382C10.1635 63.38 9.04427 63.5009 7.75865 63.5009C6.17052 63.5009 4.85465 63.1986 3.84127 62.6093C2.81277 62.0048 2.08677 61.2643 1.63302 60.3576C1.17927 59.4509 0.952398 58.5291 0.952398 57.5921C0.952398 56.6401 1.17927 55.7183 1.63302 54.8267C2.08677 53.92 2.8279 53.1795 3.8564 52.575C4.8849 51.9706 6.20077 51.6834 7.7889 51.6834C9.10477 51.6834 10.224 51.895 11.1164 52.303C12.0239 52.711 12.7045 53.2248 13.1734 53.8293C13.6423 54.4338 13.9296 55.0685 14.0355 55.7183H15.1699C15.0338 54.8267 14.6708 53.9955 14.0809 53.24C13.491 52.4844 12.6591 51.8648 11.6004 51.3963C10.5416 50.9278 9.25602 50.7012 7.7889 50.7012C6.2159 50.7012 4.8244 50.9883 3.62952 51.5625C2.41952 52.1368 1.48177 52.9377 0.816273 53.9804C0.453273 54.5547 0.181023 55.1894 0.0146484 55.8694V59.3451C0.181023 60.0251 0.438148 60.6598 0.816273 61.2341C1.46665 62.2617 2.38927 63.0626 3.59927 63.6369Z" fill="white"/>
<path d="M33.8343 51.0645L26.0752 64.121H27.3003L29.2817 60.7813H39.7179L41.6993 64.121H42.9547L35.1653 51.0645H33.8343ZM29.8867 59.7839L34.5149 51.9863L39.1281 59.7839H29.8867Z" fill="white"/>
<path d="M68.562 54.8122C68.562 53.5428 68.1537 52.6059 67.3369 51.9863C66.5202 51.3667 65.3102 51.0645 63.6918 51.0645H54.7227V64.121H55.8117V58.9528H65.295C65.9605 58.9528 66.4748 59.0888 66.7924 59.3759C67.1252 59.6631 67.2915 60.1164 67.2915 60.736V64.121H68.3805V60.5547C68.3805 59.8897 68.199 59.3608 67.8512 58.9528C67.5033 58.5448 67.0042 58.2879 66.3689 58.1821C67.8209 57.6532 68.562 56.5198 68.562 54.8122ZM66.4143 57.2754C65.7488 57.7288 64.7808 57.9403 63.4952 57.9403H55.7965V52.0467H63.4952C64.7959 52.0467 65.779 52.2583 66.4294 52.6663C67.0798 53.0894 67.4125 53.845 67.4125 54.9331C67.4125 56.0513 67.0798 56.8372 66.4143 57.2754Z" fill="white"/>
<path d="M92.6859 51.7898C91.6876 51.3062 90.5835 51.0645 89.3584 51.0645H81.1455V64.121H89.3584C90.5835 64.121 91.6876 63.8792 92.6859 63.3957C93.6841 62.9121 94.4858 62.1716 95.0756 61.1893C95.6806 60.2071 95.968 59.0132 95.968 57.5927C95.968 56.1722 95.6655 54.9784 95.0756 53.9961C94.4706 53.0139 93.6841 52.2734 92.6859 51.7898ZM93.2758 61.7485C92.2321 62.6703 90.765 63.1388 88.8593 63.1388H82.2345V52.0618H88.8593C90.765 52.0618 92.2321 52.5303 93.2758 53.4521C94.3194 54.3739 94.8336 55.7642 94.8336 57.6079C94.8336 59.4364 94.3043 60.8267 93.2758 61.7485Z" fill="white"/>
<path d="M109.445 63.1388V58.1065H120.804V57.0941H109.445V52.0618H120.804V51.0645H108.371V64.121H120.804V63.1388H109.445Z" fill="white"/>
</g>
<defs>
<clipPath id="clip0">
<rect width="121" height="121" fill="white" transform="translate(0 0.5)"/>
</clipPath>
</defs>
</svg>
