<svg width="1391" height="670" viewBox="0 0 1391 670" fill="none" xmlns="http://www.w3.org/2000/svg">
<path d="M588.142 65.2559L407.177 465.736" stroke="#1A1B20" stroke-width="3"/>
<path d="M445.19 118.262L562.443 387.569" stroke="#B4B4B4" stroke-width="3"/>
<path d="M389.509 233.371L633.116 244.079" stroke="#B4B4B4" stroke-width="2"/>
<path fill-rule="evenodd" clip-rule="evenodd" d="M502.263 322.251C547.387 322.251 583.967 285.671 583.967 240.548C583.967 195.424 547.387 158.844 502.263 158.844C457.14 158.844 420.56 195.424 420.56 240.548C420.56 285.671 457.14 322.251 502.263 322.251ZM502.263 272.368C519.837 272.368 534.084 258.121 534.084 240.547C534.084 222.973 519.837 208.727 502.263 208.727C484.689 208.727 470.443 222.973 470.443 240.547C470.443 258.121 484.689 272.368 502.263 272.368Z" fill="#D3D3D3"/>
<path fill-rule="evenodd" clip-rule="evenodd" d="M502.264 313.652C542.639 313.652 575.369 280.922 575.369 240.547C575.369 200.172 542.639 167.441 502.264 167.441C461.889 167.441 429.158 200.172 429.158 240.547C429.158 280.922 461.889 313.652 502.264 313.652ZM502.264 272.368C519.838 272.368 534.084 258.121 534.084 240.547C534.084 222.973 519.838 208.726 502.264 208.726C484.69 208.726 470.443 222.973 470.443 240.547C470.443 258.121 484.69 272.368 502.264 272.368Z" fill="#A80000"/>
<path fill-rule="evenodd" clip-rule="evenodd" d="M502.264 295.951C532.862 295.951 557.668 271.146 557.668 240.547C557.668 209.948 532.862 185.143 502.264 185.143C471.665 185.143 446.859 209.948 446.859 240.547C446.859 271.146 471.665 295.951 502.264 295.951ZM502.264 272.368C519.838 272.368 534.084 258.121 534.084 240.547C534.084 222.973 519.838 208.726 502.264 208.726C484.69 208.726 470.443 222.973 470.443 240.547C470.443 258.121 484.69 272.368 502.264 272.368Z" fill="#A80000"/>
<circle cx="502.263" cy="240.546" r="19.025" stroke="#1A1B20" stroke-width="2"/>
<path d="M1193.12 587.732L1302.62 480.232L1359.12 519.232L1215.62 636.232L1193.12 587.732Z" fill="#DC0B07"/>
<path d="M1.44261 41.7383H63.375L0.125 114.699L1.44261 41.7383Z" fill="#AD4949"/>
<path d="M255.615 258.94L255.615 343.345L182.518 301.142L255.615 258.94Z" fill="#DC0B07"/>
<circle cx="159.284" cy="268.47" r="7.47021" fill="#2A2B30"/>
<circle cx="733.784" cy="564.676" r="12" fill="#332B2B"/>
<circle cx="734.066" cy="564.163" r="7.89502" fill="#AD4949"/>
<circle cx="669.178" cy="457.915" r="32.4382" fill="#2A2B30"/>
<circle cx="712.984" cy="459.323" r="13.2159" fill="#2A2B30"/>
<circle cx="693.989" cy="421.048" r="5.90306" fill="#DC0B07"/>
<circle cx="627.213" cy="476.663" r="5.90306" fill="#DC0B07"/>
<circle cx="1007.59" cy="86.2188" r="7.5" stroke="#AD4949" stroke-width="3"/>
<circle cx="746.544" cy="342.201" r="7.68101" stroke="#2A2B30" stroke-width="2"/>
<line x1="752.336" y1="343.889" x2="969.076" y2="570.29" stroke="#2A2B30" stroke-width="2"/>
<line x1="755.489" y1="344.214" x2="1091.72" y2="434.976" stroke="#2A2B30" stroke-width="2"/>
<line x1="762.217" y1="393.679" x2="812.495" y2="319.169" stroke="#2A2B30" stroke-width="2"/>
<line x1="772.937" y1="413.87" x2="843.955" y2="306.971" stroke="#2A2B30" stroke-width="2"/>
<line x1="779.647" y1="442.254" x2="931.286" y2="668.656" stroke="black" stroke-width="2"/>
<line x1="1020.58" y1="567.967" x2="779.075" y2="443.7" stroke="black" stroke-width="2"/>
<circle cx="773.117" cy="437.56" r="5.25102" fill="#2A2B30"/>
<line x1="801.762" y1="516.939" x2="845.726" y2="460.386" stroke="black"/>
<line x1="808.069" y1="521.984" x2="852.034" y2="465.43" stroke="black"/>
<line x1="814.372" y1="527.038" x2="857.106" y2="470.063" stroke="black"/>
<line x1="820.371" y1="531.644" x2="861.108" y2="474.357" stroke="black"/>
<line x1="824.694" y1="535.875" x2="867.219" y2="477.681" stroke="black"/>
<circle cx="912.448" cy="510.598" r="6.16679" stroke="#333438" stroke-width="2"/>
<path d="M664.998 165.505C668.295 190.232 691.138 241.098 749.775 241.098C763.904 211.426 701.735 152.788 664.998 165.505Z" stroke="#D3D3D3" stroke-width="2"/>
<path d="M666.588 172.217L685.486 164.799" stroke="#D3D3D3" stroke-width="2"/>
<path d="M669.943 181.047L695.023 168.154" stroke="#D3D3D3" stroke-width="2"/>
<path d="M673.299 189.879L705.973 172.041" stroke="#D3D3D3" stroke-width="2"/>
<path d="M696.789 221.847L736.705 198.18" stroke="#D3D3D3" stroke-width="2"/>
<path d="M704.561 227.852L742.887 206.305" stroke="#D3D3D3" stroke-width="2"/>
<path d="M717.277 234.21L747.126 215.135" stroke="#D3D3D3" stroke-width="2"/>
<path d="M725.932 237.389L750.305 224.496" stroke="#D3D3D3" stroke-width="2"/>
<path d="M677.892 198.886L714.981 178.398" stroke="#D3D3D3" stroke-width="2"/>
<path d="M683.013 207.541L722.222 184.934" stroke="#D3D3D3" stroke-width="2"/>
<path d="M689.725 215.312L729.64 191.469" stroke="#D3D3D3" stroke-width="2"/>
<circle cx="922.108" cy="375.28" r="72.4165" fill="#F0EFED"/>
<circle cx="910.918" cy="385.408" r="9.59947" fill="#2A2B30"/>
<line x1="901.617" y1="269.06" x2="911.012" y2="405.034" stroke="#2A2B30" stroke-width="2" stroke-linecap="square" stroke-dasharray="8 8"/>
<path d="M1239.12 54.5215L1261.99 96.7266" stroke="#DC0B07" stroke-width="3"/>
<path d="M1247.04 56.5742C1233.26 62.143 1225.35 92.3314 1261.4 89.6935" stroke="#DC0B07" stroke-width="3"/>
<path d="M1158.29 90.7344L1171.85 115.765" stroke="#A80000" stroke-width="2"/>
<path d="M1162.99 91.9512C1154.82 95.2538 1152.38 113.824 1173.76 112.26" stroke="#A80000" stroke-width="2"/>
<path d="M1227.45 173.154L1241.01 198.185" stroke="#AD4949" stroke-width="2"/>
<path d="M1232.14 174.371C1223.97 177.674 1221.54 196.244 1242.92 194.68" stroke="#AD4949" stroke-width="2"/>
<path d="M1327.07 129.084L1356.75 183.867" stroke="#2A2B30" stroke-width="3"/>
<path d="M1337.35 131.748C1317.09 135.416 1314.45 185.534 1358.41 174.397" stroke="#2A2B30" stroke-width="3"/>
<path d="M198.863 144.951L268.554 128.293" stroke="#2A2B30" stroke-width="3"/>
<path d="M204.88 134.333C202.924 157.931 257.815 175.78 258.529 123.625" stroke="#2A2B30" stroke-width="3"/>
<rect x="1161.77" y="8.79492" width="13.8808" height="393.024" transform="rotate(-27.4884 1161.77 8.79492)" fill="#2A2B30"/>
<rect x="1287.69" y="244.344" width="7.03419" height="7.03419" transform="rotate(-27.4884 1287.69 244.344)" fill="white"/>
<rect x="1274.98" y="218.393" width="7.03419" height="11.124" transform="rotate(-27.4884 1274.98 218.393)" fill="white"/>
<rect x="1263.14" y="195.023" width="7.03419" height="11.124" transform="rotate(-27.4884 1263.14 195.023)" fill="white"/>
<rect x="1251.29" y="171.654" width="7.03419" height="11.124" transform="rotate(-27.4884 1251.29 171.654)" fill="white"/>
<rect x="1239.45" y="148.285" width="7.03419" height="11.124" transform="rotate(-27.4884 1239.45 148.285)" fill="white"/>
<rect x="1224.67" y="119.648" width="7.03419" height="11.124" transform="rotate(-27.4884 1224.67 119.648)" fill="white"/>
<rect x="1209.88" y="91.0098" width="7.03419" height="11.124" transform="rotate(-27.4884 1209.88 91.0098)" fill="white"/>
<rect x="1197.15" y="66.4688" width="7.03419" height="11.124" transform="rotate(-27.4884 1197.15 66.4688)" fill="white"/>
<rect x="1184.42" y="41.9277" width="7.03419" height="11.124" transform="rotate(-27.4884 1184.42 41.9277)" fill="white"/>
<rect x="1171.7" y="17.3867" width="7.03419" height="11.124" transform="rotate(-27.4884 1171.7 17.3867)" fill="white"/>
<rect x="1299.41" y="266.072" width="7.03419" height="7.03419" transform="rotate(-27.4884 1299.41 266.072)" fill="white"/>
<rect x="1309.33" y="285.32" width="7.03419" height="7.03419" transform="rotate(-27.4884 1309.33 285.32)" fill="white"/>
<rect x="1321.06" y="307.047" width="7.03419" height="7.03419" transform="rotate(-27.4884 1321.06 307.047)" fill="white"/>
<rect x="1330.44" y="326.43" width="7.03419" height="7.03419" transform="rotate(-27.4884 1330.44 326.43)" fill="white"/>
<rect x="1341.62" y="347.115" width="7.03419" height="7.03419" transform="rotate(-27.4884 1341.62 347.115)" fill="white"/>
<path d="M1107.41 61.6309L1111.18 60.6368L1293.63 380.537L1285.17 386.221L1107.41 61.6309Z" fill="#1A1B20"/>
<path d="M1110.93 60.457L1116.32 57.7459L1291 383.37L1288.69 385.047L1110.93 60.457Z" fill="#D3D3D3"/>
<path d="M1115.62 58.1124L1116.32 58.1123L1293.93 381.319L1291 383.37L1115.62 58.1124Z" fill="#AD4949"/>
<line x1="789.433" y1="492.256" x2="1147.07" y2="21.9174" stroke="#322B20" stroke-width="3"/>
<line x1="791.525" y1="108.677" x2="1288.23" y2="1.34351" stroke="#D3D3D3" stroke-width="2"/>
<line x1="971.179" y1="233.088" x2="1247.81" y2="102.605" stroke="#D3D3D3" stroke-width="2"/>
<line x1="1028.41" y1="302.655" x2="1118.9" y2="245.415" stroke="#322B20" stroke-width="2"/>
<circle cx="1113.84" cy="239.866" r="8.60784" fill="#1A1B20"/>
<path d="M1387.83 245.869C1202.35 345.412 978.629 329.99 978.103 205.836C981.726 204.729 985.685 206.031 987.447 209.385C998.962 231.295 1004.03 271.274 1076.2 289.653C1208.27 316.324 1304.64 282.198 1387.83 245.869Z" fill="#1A1B20"/>
<path d="M873.076 135.048C877.387 172.961 904.427 240.196 978.103 205.836M978.103 205.836C978.629 329.99 1202.35 345.412 1387.83 245.869C1304.64 282.198 1208.27 316.324 1076.2 289.653C1004.03 271.274 998.962 231.295 987.447 209.385C985.685 206.031 981.726 204.729 978.103 205.836V205.836Z" stroke="#1A1B20" stroke-width="3"/>
<circle cx="340.16" cy="565.223" r="46.9652" fill="#F0EFED"/>
<path d="M81.3604 395.699L95.8604 359.199C129.36 436.699 184.86 508.699 297.36 551.199C167.36 546.699 81.3604 426.722 81.3604 395.699Z" fill="#020202"/>
<rect x="5.05664" y="527.336" width="13.3051" height="120.484" fill="#1A1B20"/>
<rect x="11.8135" y="538.062" width="7.12925" height="7.12925" fill="white"/>
<rect x="11.8135" y="556.598" width="7.12925" height="7.12925" fill="white"/>
<rect x="11.8135" y="576.561" width="7.12925" height="7.12925" fill="white"/>
<rect x="11.8135" y="595.096" width="7.12925" height="7.12925" fill="white"/>
<rect x="11.8135" y="613.633" width="7.12925" height="7.12925" fill="white"/>
<rect x="11.8135" y="630.742" width="7.12925" height="7.12925" fill="white"/>
<rect x="59.2393" y="527.336" width="13.3051" height="120.484" fill="#1A1B20"/>
<rect x="65.9961" y="538.062" width="7.12925" height="7.12925" fill="white"/>
<rect x="65.9961" y="556.598" width="7.12925" height="7.12925" fill="white"/>
<rect x="65.9961" y="576.561" width="7.12925" height="7.12925" fill="white"/>
<rect x="65.9961" y="595.096" width="7.12925" height="7.12925" fill="white"/>
<rect x="65.9961" y="613.633" width="7.12925" height="7.12925" fill="white"/>
<rect x="65.9961" y="630.742" width="7.12925" height="7.12925" fill="white"/>
</svg>
