<svg width="36" height="37" viewBox="0 0 36 37" fill="none" xmlns="http://www.w3.org/2000/svg">
<path d="M5.34373 13.3515H30.6562C31.122 13.3515 31.4999 12.9735 31.4999 12.5078C31.4999 12.042 31.1219 11.6641 30.6562 11.6641H5.34373C4.87796 11.6641 4.5 12.0421 4.5 12.5078C4.5 12.9735 4.87803 13.3515 5.34373 13.3515Z" fill="#1A1B20"/>
<path d="M30.6562 17.5703H5.34373C4.87796 17.5703 4.5 17.9483 4.5 18.414C4.5 18.8797 4.87803 19.2578 5.34373 19.2578H30.6562C31.122 19.2578 31.4999 18.8797 31.4999 18.414C31.4999 17.9483 31.122 17.5703 30.6562 17.5703Z" fill="#1A1B20"/>
<path d="M30.6562 23.4766H13.7812C13.3155 23.4766 12.9375 23.8546 12.9375 24.3203C12.9375 24.7861 13.3155 25.164 13.7812 25.164H30.6562C31.122 25.164 31.4999 24.786 31.4999 24.3203C31.5 23.8545 31.122 23.4766 30.6562 23.4766Z" fill="#1A1B20"/>
</svg>
