<svg width="46" height="47" viewBox="0 0 46 47" fill="none" xmlns="http://www.w3.org/2000/svg">
<path d="M33.0197 27.6468L30.2097 24.8368C29.2061 23.8332 27.5001 24.2347 27.0986 25.5393C26.7976 26.4425 25.794 26.9443 24.8908 26.7436C22.8836 26.2418 20.174 23.6325 19.6722 21.525C19.3711 20.6217 19.9733 19.6181 20.8765 19.3171C22.1811 18.9157 22.5826 17.2096 21.579 16.206L18.769 13.396C17.9661 12.6935 16.7618 12.6935 16.0593 13.396L14.1525 15.3028C12.2457 17.31 14.3532 22.6289 19.07 27.3457C23.7868 32.0625 29.1058 34.2704 31.1129 32.2632L33.0197 30.3564C33.7223 29.5536 33.7223 28.3493 33.0197 27.6468Z" fill="#3D3D3D"/>
<rect x="0.5" y="0.914062" width="45" height="45" stroke="#DC0B07"/>
</svg>
